<mxfile host="app.diagrams.net" modified="2023-12-18T17:11:36.818Z" agent="Mozilla/5.0 (X11; Ubuntu; Linux x86_64; rv:121.0) Gecko/20100101 Firefox/121.0" etag="ZX4WLjfDGkh8btASerln" version="22.1.11" type="device">
  <diagram name="Page-1" id="JMT0KtgX3B_tpK4LKjmZ">
    <mxGraphModel dx="3201" dy="2184" grid="1" gridSize="10" guides="1" tooltips="1" connect="1" arrows="1" fold="1" page="1" pageScale="1" pageWidth="850" pageHeight="1100" math="0" shadow="0">
      <root>
        <mxCell id="0" />
        <mxCell id="1" parent="0" />
        <mxCell id="QlOtEN6NoLlLE6Wvn6i3-15" value="" style="edgeStyle=orthogonalEdgeStyle;rounded=0;sketch=1;hachureGap=4;jiggle=2;curveFitting=1;orthogonalLoop=1;jettySize=auto;html=1;fontFamily=Architects Daughter;fontSource=https%3A%2F%2Ffonts.googleapis.com%2Fcss%3Ffamily%3DArchitects%2BDaughter;fontSize=15;" edge="1" parent="1" source="QlOtEN6NoLlLE6Wvn6i3-3" target="QlOtEN6NoLlLE6Wvn6i3-14">
          <mxGeometry relative="1" as="geometry" />
        </mxCell>
        <mxCell id="QlOtEN6NoLlLE6Wvn6i3-3" value="start" style="ellipse;whiteSpace=wrap;html=1;sketch=1;curveFitting=1;jiggle=2;fontSize=15;" vertex="1" parent="1">
          <mxGeometry x="157" y="-1075" width="65" height="60" as="geometry" />
        </mxCell>
        <mxCell id="QlOtEN6NoLlLE6Wvn6i3-7" value="&lt;div style=&quot;font-size: 15px;&quot;&gt;end&lt;/div&gt;" style="ellipse;whiteSpace=wrap;html=1;sketch=1;curveFitting=1;jiggle=2;fontSize=15;" vertex="1" parent="1">
          <mxGeometry x="157.01" y="-85" width="65" height="60" as="geometry" />
        </mxCell>
        <mxCell id="QlOtEN6NoLlLE6Wvn6i3-11" value="&lt;div align=&quot;left&quot; style=&quot;font-size: 14px;&quot;&gt;- Verify file was opened.&lt;br style=&quot;font-size: 14px;&quot;&gt;&lt;/div&gt;&lt;div align=&quot;left&quot; style=&quot;font-size: 14px;&quot;&gt;- Verify file can be read.&lt;/div&gt;&lt;div align=&quot;left&quot; style=&quot;font-size: 14px;&quot;&gt;- Verify BUFFER_SIZE is not negative or zero.&lt;/div&gt;&lt;div align=&quot;left&quot; style=&quot;font-size: 14px;&quot;&gt;- Read n_bytes in the files.&lt;/div&gt;&lt;div align=&quot;left&quot; style=&quot;font-size: 14px;&quot;&gt;- verify if read is success.&lt;/div&gt;&lt;div align=&quot;left&quot; style=&quot;font-size: 14px;&quot;&gt;- create new node.&lt;/div&gt;&lt;div align=&quot;left&quot; style=&quot;font-size: 14px;&quot;&gt;- add the node to the list.&lt;br style=&quot;font-size: 14px;&quot;&gt;&lt;/div&gt;&lt;div align=&quot;left&quot; style=&quot;font-size: 14px;&quot;&gt;- add the content in the node.&lt;/div&gt;&lt;div align=&quot;left&quot; style=&quot;font-size: 14px;&quot;&gt;- verify if content in node is New Line.&lt;/div&gt;&lt;div align=&quot;left&quot; style=&quot;font-size: 14px;&quot;&gt;- if New Line: return it.&lt;/div&gt;&lt;div align=&quot;left&quot; style=&quot;font-size: 14px;&quot;&gt;&lt;span style=&quot;white-space: pre; font-size: 14px;&quot;&gt;&#x9;&lt;/span&gt;- Clean list: delete node, free memory&lt;br style=&quot;font-size: 14px;&quot;&gt;&lt;/div&gt;&lt;div align=&quot;left&quot; style=&quot;font-size: 14px;&quot;&gt;- if not: start cycle again &lt;br style=&quot;font-size: 14px;&quot;&gt;&lt;/div&gt;&lt;div style=&quot;font-size: 14px;&quot;&gt;&lt;br style=&quot;font-size: 14px;&quot;&gt;&lt;/div&gt;" style="shape=note;whiteSpace=wrap;html=1;backgroundOutline=1;darkOpacity=0.05;fillStyle=solid;direction=west;gradientDirection=north;shadow=1;size=20;pointerEvents=1;fontSize=14;sketch=1;curveFitting=1;jiggle=2;" vertex="1" parent="1">
          <mxGeometry x="-840" y="-1055" width="290" height="250" as="geometry" />
        </mxCell>
        <mxCell id="QlOtEN6NoLlLE6Wvn6i3-19" value="" style="edgeStyle=orthogonalEdgeStyle;rounded=0;sketch=1;hachureGap=4;jiggle=2;curveFitting=1;orthogonalLoop=1;jettySize=auto;html=1;fontFamily=Architects Daughter;fontSource=https%3A%2F%2Ffonts.googleapis.com%2Fcss%3Ffamily%3DArchitects%2BDaughter;fontSize=15;" edge="1" parent="1" source="QlOtEN6NoLlLE6Wvn6i3-14" target="QlOtEN6NoLlLE6Wvn6i3-18">
          <mxGeometry relative="1" as="geometry" />
        </mxCell>
        <mxCell id="QlOtEN6NoLlLE6Wvn6i3-21" value="NO" style="edgeLabel;html=1;align=center;verticalAlign=middle;resizable=0;points=[];fontSize=15;fontFamily=Architects Daughter;" vertex="1" connectable="0" parent="QlOtEN6NoLlLE6Wvn6i3-19">
          <mxGeometry x="-0.0368" y="3" relative="1" as="geometry">
            <mxPoint x="1" as="offset" />
          </mxGeometry>
        </mxCell>
        <mxCell id="QlOtEN6NoLlLE6Wvn6i3-23" value="" style="edgeStyle=orthogonalEdgeStyle;rounded=0;sketch=1;hachureGap=4;jiggle=2;curveFitting=1;orthogonalLoop=1;jettySize=auto;html=1;fontFamily=Architects Daughter;fontSource=https%3A%2F%2Ffonts.googleapis.com%2Fcss%3Ffamily%3DArchitects%2BDaughter;fontSize=15;" edge="1" parent="1" source="QlOtEN6NoLlLE6Wvn6i3-14" target="QlOtEN6NoLlLE6Wvn6i3-22">
          <mxGeometry relative="1" as="geometry" />
        </mxCell>
        <mxCell id="QlOtEN6NoLlLE6Wvn6i3-24" value="yes" style="edgeLabel;html=1;align=center;verticalAlign=middle;resizable=0;points=[];fontSize=15;fontFamily=Architects Daughter;" vertex="1" connectable="0" parent="QlOtEN6NoLlLE6Wvn6i3-23">
          <mxGeometry x="-0.3587" y="2" relative="1" as="geometry">
            <mxPoint as="offset" />
          </mxGeometry>
        </mxCell>
        <mxCell id="QlOtEN6NoLlLE6Wvn6i3-14" value="&lt;div style=&quot;font-size: 15px;&quot;&gt;preliminary&amp;nbsp;&lt;/div&gt;&lt;div style=&quot;font-size: 15px;&quot;&gt;reading&amp;nbsp;&lt;/div&gt;&lt;div style=&quot;font-size: 15px;&quot;&gt;checks&lt;/div&gt;&lt;div style=&quot;font-size: 15px;&quot;&gt;O.K?&lt;br&gt;&lt;/div&gt;" style="rhombus;whiteSpace=wrap;html=1;sketch=1;curveFitting=1;jiggle=2;hachureGap=4;fontFamily=Architects Daughter;fontSource=https%3A%2F%2Ffonts.googleapis.com%2Fcss%3Ffamily%3DArchitects%2BDaughter;fontSize=15;" vertex="1" parent="1">
          <mxGeometry x="120" y="-970" width="139" height="130" as="geometry" />
        </mxCell>
        <mxCell id="QlOtEN6NoLlLE6Wvn6i3-20" style="edgeStyle=orthogonalEdgeStyle;rounded=0;sketch=1;hachureGap=4;jiggle=2;curveFitting=1;orthogonalLoop=1;jettySize=auto;html=1;fontFamily=Architects Daughter;fontSource=https%3A%2F%2Ffonts.googleapis.com%2Fcss%3Ffamily%3DArchitects%2BDaughter;fontSize=15;" edge="1" parent="1">
          <mxGeometry relative="1" as="geometry">
            <mxPoint x="-190.01" y="-895" as="sourcePoint" />
            <mxPoint x="160" y="-55" as="targetPoint" />
            <Array as="points">
              <mxPoint x="-400" y="-894" />
              <mxPoint x="-400" y="-55" />
            </Array>
          </mxGeometry>
        </mxCell>
        <mxCell id="QlOtEN6NoLlLE6Wvn6i3-18" value="NULL" style="rounded=1;whiteSpace=wrap;html=1;fontSize=15;fontFamily=Architects Daughter;sketch=1;curveFitting=1;jiggle=2;hachureGap=4;fontSource=https%3A%2F%2Ffonts.googleapis.com%2Fcss%3Ffamily%3DArchitects%2BDaughter;" vertex="1" parent="1">
          <mxGeometry x="-190" y="-935" width="120" height="60" as="geometry" />
        </mxCell>
        <mxCell id="QlOtEN6NoLlLE6Wvn6i3-26" value="" style="edgeStyle=orthogonalEdgeStyle;rounded=0;sketch=1;hachureGap=4;jiggle=2;curveFitting=1;orthogonalLoop=1;jettySize=auto;html=1;fontFamily=Architects Daughter;fontSource=https%3A%2F%2Ffonts.googleapis.com%2Fcss%3Ffamily%3DArchitects%2BDaughter;fontSize=15;" edge="1" parent="1" source="QlOtEN6NoLlLE6Wvn6i3-22" target="QlOtEN6NoLlLE6Wvn6i3-25">
          <mxGeometry relative="1" as="geometry" />
        </mxCell>
        <mxCell id="QlOtEN6NoLlLE6Wvn6i3-22" value="Read n_bytes" style="rounded=1;whiteSpace=wrap;html=1;fontSize=15;fontFamily=Architects Daughter;sketch=1;curveFitting=1;jiggle=2;hachureGap=4;fontSource=https%3A%2F%2Ffonts.googleapis.com%2Fcss%3Ffamily%3DArchitects%2BDaughter;" vertex="1" parent="1">
          <mxGeometry x="129.51" y="-794" width="120" height="60" as="geometry" />
        </mxCell>
        <mxCell id="QlOtEN6NoLlLE6Wvn6i3-29" value="" style="edgeStyle=orthogonalEdgeStyle;rounded=0;sketch=1;hachureGap=4;jiggle=2;curveFitting=1;orthogonalLoop=1;jettySize=auto;html=1;fontFamily=Architects Daughter;fontSource=https%3A%2F%2Ffonts.googleapis.com%2Fcss%3Ffamily%3DArchitects%2BDaughter;fontSize=15;" edge="1" parent="1" source="QlOtEN6NoLlLE6Wvn6i3-25">
          <mxGeometry relative="1" as="geometry">
            <mxPoint x="-400" y="-763.5" as="targetPoint" />
          </mxGeometry>
        </mxCell>
        <mxCell id="QlOtEN6NoLlLE6Wvn6i3-31" value="NO" style="edgeLabel;html=1;align=center;verticalAlign=middle;resizable=0;points=[];fontSize=15;fontFamily=Architects Daughter;" vertex="1" connectable="0" parent="QlOtEN6NoLlLE6Wvn6i3-29">
          <mxGeometry x="-0.1532" y="3" relative="1" as="geometry">
            <mxPoint x="60" y="-3" as="offset" />
          </mxGeometry>
        </mxCell>
        <mxCell id="QlOtEN6NoLlLE6Wvn6i3-148" value="" style="edgeStyle=orthogonalEdgeStyle;rounded=0;sketch=1;hachureGap=4;jiggle=2;curveFitting=1;orthogonalLoop=1;jettySize=auto;html=1;fontFamily=Architects Daughter;fontSource=https%3A%2F%2Ffonts.googleapis.com%2Fcss%3Ffamily%3DArchitects%2BDaughter;fontSize=16;" edge="1" parent="1" source="QlOtEN6NoLlLE6Wvn6i3-25" target="QlOtEN6NoLlLE6Wvn6i3-131">
          <mxGeometry relative="1" as="geometry" />
        </mxCell>
        <mxCell id="QlOtEN6NoLlLE6Wvn6i3-149" value="Yes" style="edgeLabel;html=1;align=center;verticalAlign=middle;resizable=0;points=[];fontSize=20;fontFamily=Architects Daughter;" vertex="1" connectable="0" parent="QlOtEN6NoLlLE6Wvn6i3-148">
          <mxGeometry x="-0.2381" y="2" relative="1" as="geometry">
            <mxPoint as="offset" />
          </mxGeometry>
        </mxCell>
        <mxCell id="QlOtEN6NoLlLE6Wvn6i3-25" value="Read?" style="rhombus;whiteSpace=wrap;html=1;fontSize=15;fontFamily=Architects Daughter;rounded=1;sketch=1;curveFitting=1;jiggle=2;hachureGap=4;fontSource=https%3A%2F%2Ffonts.googleapis.com%2Fcss%3Ffamily%3DArchitects%2BDaughter;" vertex="1" parent="1">
          <mxGeometry x="-175" y="-805" width="80" height="82" as="geometry" />
        </mxCell>
        <mxCell id="QlOtEN6NoLlLE6Wvn6i3-28" value="" style="shape=waypoint;sketch=1;size=6;pointerEvents=1;points=[];fillColor=default;resizable=0;rotatable=0;perimeter=centerPerimeter;snapToPoint=1;fontSize=15;fontFamily=Architects Daughter;rounded=1;curveFitting=1;jiggle=2;hachureGap=4;fontSource=https%3A%2F%2Ffonts.googleapis.com%2Fcss%3Ffamily%3DArchitects%2BDaughter;" vertex="1" parent="1">
          <mxGeometry x="-335" y="-773.5" width="20" height="20" as="geometry" />
        </mxCell>
        <mxCell id="QlOtEN6NoLlLE6Wvn6i3-174" value="" style="edgeStyle=orthogonalEdgeStyle;rounded=0;sketch=1;hachureGap=4;jiggle=2;curveFitting=1;orthogonalLoop=1;jettySize=auto;html=1;fontFamily=Architects Daughter;fontSource=https%3A%2F%2Ffonts.googleapis.com%2Fcss%3Ffamily%3DArchitects%2BDaughter;fontSize=16;" edge="1" parent="1" source="QlOtEN6NoLlLE6Wvn6i3-32" target="QlOtEN6NoLlLE6Wvn6i3-152">
          <mxGeometry relative="1" as="geometry" />
        </mxCell>
        <mxCell id="QlOtEN6NoLlLE6Wvn6i3-32" value="&lt;div style=&quot;font-size: 15px;&quot;&gt;create&lt;/div&gt;&lt;div style=&quot;font-size: 15px;&quot;&gt;new node&lt;br style=&quot;font-size: 15px;&quot;&gt;&lt;/div&gt;" style="rounded=1;whiteSpace=wrap;html=1;fontSize=15;fontFamily=Architects Daughter;sketch=1;curveFitting=1;jiggle=2;hachureGap=4;fontSource=https%3A%2F%2Ffonts.googleapis.com%2Fcss%3Ffamily%3DArchitects%2BDaughter;" vertex="1" parent="1">
          <mxGeometry x="-20.019999999999982" y="-520.0000000000001" width="120" height="60" as="geometry" />
        </mxCell>
        <mxCell id="QlOtEN6NoLlLE6Wvn6i3-204" style="edgeStyle=orthogonalEdgeStyle;rounded=0;sketch=1;hachureGap=4;jiggle=2;curveFitting=1;orthogonalLoop=1;jettySize=auto;html=1;entryX=1;entryY=0.5;entryDx=0;entryDy=0;fontFamily=Architects Daughter;fontSource=https%3A%2F%2Ffonts.googleapis.com%2Fcss%3Ffamily%3DArchitects%2BDaughter;fontSize=16;" edge="1" parent="1" source="QlOtEN6NoLlLE6Wvn6i3-62" target="QlOtEN6NoLlLE6Wvn6i3-22">
          <mxGeometry relative="1" as="geometry">
            <Array as="points">
              <mxPoint x="370" y="-764" />
            </Array>
          </mxGeometry>
        </mxCell>
        <mxCell id="QlOtEN6NoLlLE6Wvn6i3-62" value="&lt;div&gt;Add node &lt;br&gt;&lt;/div&gt;&lt;div&gt;to the list&lt;br&gt;&lt;/div&gt;" style="whiteSpace=wrap;html=1;fontSize=15;fontFamily=Architects Daughter;rounded=1;sketch=1;curveFitting=1;jiggle=2;hachureGap=4;fontSource=https%3A%2F%2Ffonts.googleapis.com%2Fcss%3Ffamily%3DArchitects%2BDaughter;" vertex="1" parent="1">
          <mxGeometry x="310.005" y="-520" width="120" height="60" as="geometry" />
        </mxCell>
        <mxCell id="QlOtEN6NoLlLE6Wvn6i3-172" value="" style="edgeStyle=orthogonalEdgeStyle;rounded=0;sketch=1;hachureGap=4;jiggle=2;curveFitting=1;orthogonalLoop=1;jettySize=auto;html=1;fontFamily=Architects Daughter;fontSource=https%3A%2F%2Ffonts.googleapis.com%2Fcss%3Ffamily%3DArchitects%2BDaughter;fontSize=16;" edge="1" parent="1" source="QlOtEN6NoLlLE6Wvn6i3-85" target="QlOtEN6NoLlLE6Wvn6i3-124">
          <mxGeometry relative="1" as="geometry" />
        </mxCell>
        <mxCell id="QlOtEN6NoLlLE6Wvn6i3-85" value="&lt;div&gt;Return&lt;/div&gt;&lt;div&gt;Read Line&lt;br&gt;&lt;/div&gt;" style="whiteSpace=wrap;html=1;fontSize=15;fontFamily=Architects Daughter;rounded=1;sketch=1;curveFitting=1;jiggle=2;hachureGap=4;fontSource=https%3A%2F%2Ffonts.googleapis.com%2Fcss%3Ffamily%3DArchitects%2BDaughter;" vertex="1" parent="1">
          <mxGeometry x="-198.995" y="-185" width="120" height="60" as="geometry" />
        </mxCell>
        <mxCell id="QlOtEN6NoLlLE6Wvn6i3-127" value="" style="edgeStyle=orthogonalEdgeStyle;rounded=0;sketch=1;hachureGap=4;jiggle=2;curveFitting=1;orthogonalLoop=1;jettySize=auto;html=1;fontFamily=Architects Daughter;fontSource=https%3A%2F%2Ffonts.googleapis.com%2Fcss%3Ffamily%3DArchitects%2BDaughter;fontSize=16;" edge="1" parent="1" source="QlOtEN6NoLlLE6Wvn6i3-124" target="QlOtEN6NoLlLE6Wvn6i3-126">
          <mxGeometry relative="1" as="geometry" />
        </mxCell>
        <mxCell id="QlOtEN6NoLlLE6Wvn6i3-124" value="&lt;div&gt;remove&lt;/div&gt;&lt;div&gt;node&lt;br&gt;&lt;/div&gt;" style="whiteSpace=wrap;html=1;fontSize=15;fontFamily=Architects Daughter;rounded=1;sketch=1;curveFitting=1;jiggle=2;hachureGap=4;fontSource=https%3A%2F%2Ffonts.googleapis.com%2Fcss%3Ffamily%3DArchitects%2BDaughter;" vertex="1" parent="1">
          <mxGeometry x="-20.014999999999986" y="-185" width="120" height="60" as="geometry" />
        </mxCell>
        <mxCell id="QlOtEN6NoLlLE6Wvn6i3-126" value="&lt;div&gt;free &lt;br&gt;&lt;/div&gt;&lt;div&gt;node&lt;br&gt;&lt;/div&gt;" style="whiteSpace=wrap;html=1;fontSize=15;fontFamily=Architects Daughter;rounded=1;sketch=1;curveFitting=1;jiggle=2;hachureGap=4;fontSource=https%3A%2F%2Ffonts.googleapis.com%2Fcss%3Ffamily%3DArchitects%2BDaughter;" vertex="1" parent="1">
          <mxGeometry x="151.015" y="-185" width="120" height="60" as="geometry" />
        </mxCell>
        <mxCell id="QlOtEN6NoLlLE6Wvn6i3-143" value="" style="edgeStyle=orthogonalEdgeStyle;rounded=0;sketch=1;hachureGap=4;jiggle=2;curveFitting=1;orthogonalLoop=1;jettySize=auto;html=1;fontFamily=Architects Daughter;fontSource=https%3A%2F%2Ffonts.googleapis.com%2Fcss%3Ffamily%3DArchitects%2BDaughter;fontSize=16;" edge="1" parent="1" source="QlOtEN6NoLlLE6Wvn6i3-131" target="QlOtEN6NoLlLE6Wvn6i3-142">
          <mxGeometry relative="1" as="geometry" />
        </mxCell>
        <mxCell id="QlOtEN6NoLlLE6Wvn6i3-150" value="No" style="edgeLabel;html=1;align=center;verticalAlign=middle;resizable=0;points=[];fontSize=20;fontFamily=Architects Daughter;" vertex="1" connectable="0" parent="QlOtEN6NoLlLE6Wvn6i3-143">
          <mxGeometry x="-0.2457" y="-4" relative="1" as="geometry">
            <mxPoint as="offset" />
          </mxGeometry>
        </mxCell>
        <mxCell id="QlOtEN6NoLlLE6Wvn6i3-162" style="edgeStyle=orthogonalEdgeStyle;rounded=0;sketch=1;hachureGap=4;jiggle=2;curveFitting=1;orthogonalLoop=1;jettySize=auto;html=1;entryX=0;entryY=0.5;entryDx=0;entryDy=0;fontFamily=Architects Daughter;fontSource=https%3A%2F%2Ffonts.googleapis.com%2Fcss%3Ffamily%3DArchitects%2BDaughter;fontSize=16;" edge="1" parent="1" source="QlOtEN6NoLlLE6Wvn6i3-131" target="QlOtEN6NoLlLE6Wvn6i3-85">
          <mxGeometry relative="1" as="geometry">
            <Array as="points">
              <mxPoint x="-320" y="-625" />
              <mxPoint x="-320" y="-155" />
            </Array>
          </mxGeometry>
        </mxCell>
        <mxCell id="QlOtEN6NoLlLE6Wvn6i3-196" value="Yes" style="edgeLabel;html=1;align=center;verticalAlign=middle;resizable=0;points=[];fontSize=20;fontFamily=Architects Daughter;" vertex="1" connectable="0" parent="QlOtEN6NoLlLE6Wvn6i3-162">
          <mxGeometry x="-0.9312" y="-1" relative="1" as="geometry">
            <mxPoint x="1" as="offset" />
          </mxGeometry>
        </mxCell>
        <mxCell id="QlOtEN6NoLlLE6Wvn6i3-131" value="&lt;div&gt;End of &lt;br&gt;&lt;/div&gt;&lt;div&gt;File?&lt;br&gt;&lt;/div&gt;" style="rhombus;whiteSpace=wrap;html=1;fontSize=15;fontFamily=Architects Daughter;rounded=1;sketch=1;curveFitting=1;jiggle=2;hachureGap=4;fontSource=https%3A%2F%2Ffonts.googleapis.com%2Fcss%3Ffamily%3DArchitects%2BDaughter;" vertex="1" parent="1">
          <mxGeometry x="-182.5" y="-675" width="95" height="100" as="geometry" />
        </mxCell>
        <mxCell id="QlOtEN6NoLlLE6Wvn6i3-177" value="Yes" style="edgeStyle=orthogonalEdgeStyle;rounded=0;sketch=1;hachureGap=4;jiggle=2;curveFitting=1;orthogonalLoop=1;jettySize=auto;html=1;fontFamily=Architects Daughter;fontSource=https%3A%2F%2Ffonts.googleapis.com%2Fcss%3Ffamily%3DArchitects%2BDaughter;fontSize=16;" edge="1" parent="1" source="QlOtEN6NoLlLE6Wvn6i3-142" target="QlOtEN6NoLlLE6Wvn6i3-176">
          <mxGeometry relative="1" as="geometry" />
        </mxCell>
        <mxCell id="QlOtEN6NoLlLE6Wvn6i3-197" style="edgeStyle=orthogonalEdgeStyle;rounded=0;sketch=1;hachureGap=4;jiggle=2;curveFitting=1;orthogonalLoop=1;jettySize=auto;html=1;entryX=0;entryY=0.5;entryDx=0;entryDy=0;fontFamily=Architects Daughter;fontSource=https%3A%2F%2Ffonts.googleapis.com%2Fcss%3Ffamily%3DArchitects%2BDaughter;fontSize=16;" edge="1" parent="1" source="QlOtEN6NoLlLE6Wvn6i3-142" target="QlOtEN6NoLlLE6Wvn6i3-32">
          <mxGeometry relative="1" as="geometry" />
        </mxCell>
        <mxCell id="QlOtEN6NoLlLE6Wvn6i3-199" value="No" style="edgeLabel;html=1;align=center;verticalAlign=middle;resizable=0;points=[];fontSize=20;fontFamily=Architects Daughter;" vertex="1" connectable="0" parent="QlOtEN6NoLlLE6Wvn6i3-197">
          <mxGeometry x="-0.7782" y="-1" relative="1" as="geometry">
            <mxPoint x="7" y="-1" as="offset" />
          </mxGeometry>
        </mxCell>
        <mxCell id="QlOtEN6NoLlLE6Wvn6i3-142" value="&lt;div style=&quot;font-size: 12px;&quot;&gt;New Line&lt;/div&gt;&lt;div style=&quot;font-size: 12px;&quot;&gt;In BUff?&lt;br style=&quot;font-size: 12px;&quot;&gt;&lt;/div&gt;" style="rhombus;whiteSpace=wrap;html=1;fontSize=12;fontFamily=Architects Daughter;rounded=1;sketch=1;curveFitting=1;jiggle=2;hachureGap=4;fontSource=https%3A%2F%2Ffonts.googleapis.com%2Fcss%3Ffamily%3DArchitects%2BDaughter;" vertex="1" parent="1">
          <mxGeometry x="-180" y="-535" width="85" height="90" as="geometry" />
        </mxCell>
        <mxCell id="QlOtEN6NoLlLE6Wvn6i3-175" value="" style="edgeStyle=orthogonalEdgeStyle;rounded=0;sketch=1;hachureGap=4;jiggle=2;curveFitting=1;orthogonalLoop=1;jettySize=auto;html=1;fontFamily=Architects Daughter;fontSource=https%3A%2F%2Ffonts.googleapis.com%2Fcss%3Ffamily%3DArchitects%2BDaughter;fontSize=16;" edge="1" parent="1" source="QlOtEN6NoLlLE6Wvn6i3-152" target="QlOtEN6NoLlLE6Wvn6i3-62">
          <mxGeometry relative="1" as="geometry" />
        </mxCell>
        <mxCell id="QlOtEN6NoLlLE6Wvn6i3-152" value="&lt;div&gt;Add content&lt;/div&gt;&lt;div&gt;Node&lt;br&gt;&lt;/div&gt;" style="whiteSpace=wrap;html=1;fontSize=15;fontFamily=Architects Daughter;rounded=1;sketch=1;curveFitting=1;jiggle=2;hachureGap=4;fontSource=https%3A%2F%2Ffonts.googleapis.com%2Fcss%3Ffamily%3DArchitects%2BDaughter;" vertex="1" parent="1">
          <mxGeometry x="150" y="-520" width="120" height="60" as="geometry" />
        </mxCell>
        <mxCell id="QlOtEN6NoLlLE6Wvn6i3-183" style="edgeStyle=orthogonalEdgeStyle;rounded=0;sketch=1;hachureGap=4;jiggle=2;curveFitting=1;orthogonalLoop=1;jettySize=auto;html=1;entryX=0.5;entryY=0;entryDx=0;entryDy=0;fontFamily=Architects Daughter;fontSource=https%3A%2F%2Ffonts.googleapis.com%2Fcss%3Ffamily%3DArchitects%2BDaughter;fontSize=16;" edge="1" parent="1" source="QlOtEN6NoLlLE6Wvn6i3-176" target="QlOtEN6NoLlLE6Wvn6i3-85">
          <mxGeometry relative="1" as="geometry" />
        </mxCell>
        <mxCell id="QlOtEN6NoLlLE6Wvn6i3-188" value="Yes" style="edgeLabel;html=1;align=center;verticalAlign=middle;resizable=0;points=[];fontSize=20;fontFamily=Architects Daughter;" vertex="1" connectable="0" parent="QlOtEN6NoLlLE6Wvn6i3-183">
          <mxGeometry x="-0.5666" y="1" relative="1" as="geometry">
            <mxPoint as="offset" />
          </mxGeometry>
        </mxCell>
        <mxCell id="QlOtEN6NoLlLE6Wvn6i3-207" value="" style="edgeStyle=orthogonalEdgeStyle;rounded=0;sketch=1;hachureGap=4;jiggle=2;curveFitting=1;orthogonalLoop=1;jettySize=auto;html=1;fontFamily=Architects Daughter;fontSource=https%3A%2F%2Ffonts.googleapis.com%2Fcss%3Ffamily%3DArchitects%2BDaughter;fontSize=16;entryX=0.5;entryY=1;entryDx=0;entryDy=0;" edge="1" parent="1" source="QlOtEN6NoLlLE6Wvn6i3-176" target="QlOtEN6NoLlLE6Wvn6i3-32">
          <mxGeometry relative="1" as="geometry">
            <mxPoint x="-20.020000000000437" y="-345" as="targetPoint" />
          </mxGeometry>
        </mxCell>
        <mxCell id="QlOtEN6NoLlLE6Wvn6i3-208" value="NO" style="edgeLabel;html=1;align=center;verticalAlign=middle;resizable=0;points=[];fontSize=20;fontFamily=Architects Daughter;" vertex="1" connectable="0" parent="QlOtEN6NoLlLE6Wvn6i3-207">
          <mxGeometry x="-0.5299" y="3" relative="1" as="geometry">
            <mxPoint x="-40" as="offset" />
          </mxGeometry>
        </mxCell>
        <mxCell id="QlOtEN6NoLlLE6Wvn6i3-176" value="&lt;div&gt;List is&lt;/div&gt;&lt;div&gt;Empty?&lt;br&gt;&lt;/div&gt;" style="rhombus;whiteSpace=wrap;html=1;fontSize=15;fontFamily=Architects Daughter;rounded=1;sketch=1;curveFitting=1;jiggle=2;hachureGap=4;fontSource=https%3A%2F%2Ffonts.googleapis.com%2Fcss%3Ffamily%3DArchitects%2BDaughter;" vertex="1" parent="1">
          <mxGeometry x="-178.99" y="-385" width="80" height="80" as="geometry" />
        </mxCell>
        <mxCell id="QlOtEN6NoLlLE6Wvn6i3-190" value="" style="shape=waypoint;sketch=1;size=6;pointerEvents=1;points=[];fillColor=default;resizable=0;rotatable=0;perimeter=centerPerimeter;snapToPoint=1;fontFamily=Architects Daughter;rounded=1;curveFitting=1;jiggle=2;hachureGap=4;fontSource=https%3A%2F%2Ffonts.googleapis.com%2Fcss%3Ffamily%3DArchitects%2BDaughter;fontSize=20;" vertex="1" parent="1">
          <mxGeometry x="81.00999999999999" y="-465" width="20" height="20" as="geometry" />
        </mxCell>
        <mxCell id="QlOtEN6NoLlLE6Wvn6i3-212" value="&lt;div&gt;&lt;span style=&quot;white-space: pre;&quot;&gt;&#x9;&lt;/span&gt;CASES POSSIBLES:&lt;/div&gt;&lt;div&gt;&amp;nbsp; - File Empty.&lt;/div&gt;&lt;div&gt;&amp;nbsp; - No New Line until the end of the File.&lt;br&gt;&lt;/div&gt;&lt;div&gt;&amp;nbsp; - New Line before finish BUFFER SIZE.&lt;/div&gt;&lt;div&gt;&amp;nbsp; - New Line length = BUFFER SIZE.&lt;/div&gt;&lt;div&gt;&amp;nbsp; - Total file length &amp;lt; BUFFER SIZE&lt;/div&gt;&lt;div&gt;&amp;nbsp; - &lt;br&gt;&lt;/div&gt;" style="shape=note;whiteSpace=wrap;html=1;backgroundOutline=1;darkOpacity=0.05;fillStyle=solid;direction=west;gradientDirection=north;shadow=1;size=20;pointerEvents=1;sketch=1;curveFitting=1;jiggle=2;labelPosition=center;verticalLabelPosition=middle;align=left;verticalAlign=middle;fontSize=14;" vertex="1" parent="1">
          <mxGeometry x="-840" y="-770" width="290" height="250" as="geometry" />
        </mxCell>
      </root>
    </mxGraphModel>
  </diagram>
</mxfile>
